<svg width="97" height="42" viewBox="0 0 97 42" fill="none" xmlns="http://www.w3.org/2000/svg">
<g filter="url(#filter0_d_4127_555)">
<path d="M92.4729 0H65.2502C63.334 0 61.4434 0.427579 59.6038 1.28274C58.9268 1.5937 58.2881 1.94354 57.6749 2.35816C57.1767 2.65617 56.4741 3.21332 55.5671 4.04256C52.7695 6.93196 51.3643 10.3396 51.3643 14.2785V18.8783C51.3643 22.0398 52.284 24.9032 54.1108 27.4428C54.4557 27.9092 54.9411 28.4664 55.5671 29.1142C56.193 29.6973 56.7296 30.1638 57.1894 30.5136C59.706 32.2757 62.3759 33.1568 65.2119 33.1568H92.4346V13.1642H72.6722C72.4295 13.1642 72.1484 13.1902 71.8546 13.2549C71.037 13.54 70.4622 14.0065 70.1173 14.6413C69.7724 15.056 69.6063 15.7038 69.6063 16.5978V20.4979H83.5305V24.5923H65.033C64.6881 24.5923 64.1771 24.4886 63.5256 24.2813C63.1935 24.1647 62.8358 23.9833 62.4653 23.763C62.1587 23.5557 61.7883 23.2577 61.3667 22.882C60.3575 21.7547 59.8465 20.4849 59.8465 19.0726V14.0971C59.8465 12.931 60.2042 11.8426 60.9452 10.832C62.1076 9.34195 63.5895 8.59045 65.3524 8.59045H92.4729V0Z" fill="#2B7BC6"/>
<path d="M45.1087 0H17.8859C15.9697 0 14.0791 0.427579 12.2396 1.28274C11.5625 1.5937 10.9238 1.94354 10.3106 2.35816C9.81241 2.65617 9.10981 3.21332 8.20282 4.04256C5.4052 6.93196 4 10.3396 4 14.2785V18.8783C4 22.0398 4.91977 24.9032 6.74653 27.4428C7.09144 27.9092 7.57687 28.4664 8.20282 29.1142C8.82877 29.6973 9.3653 30.1638 9.82519 30.5136C12.3418 32.2757 15.0117 33.1568 17.8476 33.1568H45.0703V13.1642H25.3079C25.0652 13.1642 24.7842 13.1902 24.4904 13.2549C23.6728 13.54 23.0979 14.0065 22.753 14.6413C22.4081 15.056 22.242 15.7038 22.242 16.5978V20.4979H36.1663V24.5923H17.6688C17.3238 24.5923 16.8129 24.4886 16.1614 24.2813C15.8292 24.1647 15.4715 23.9833 15.1011 23.763C14.7945 23.5557 14.424 23.2577 14.0025 22.882C12.9933 21.7547 12.4823 20.4849 12.4823 19.0726V14.0971C12.4823 12.931 12.84 11.8426 13.5809 10.832C14.7434 9.34195 16.2252 8.59045 17.9881 8.59045H45.1087V0Z" fill="#2B7BC6"/>
</g>
<defs>
<filter id="filter0_d_4127_555" x="0" y="0" width="96.4731" height="41.1569" filterUnits="userSpaceOnUse" color-interpolation-filters="sRGB">
<feFlood flood-opacity="0" result="BackgroundImageFix"/>
<feColorMatrix in="SourceAlpha" type="matrix" values="0 0 0 0 0 0 0 0 0 0 0 0 0 0 0 0 0 0 127 0" result="hardAlpha"/>
<feOffset dy="4"/>
<feGaussianBlur stdDeviation="2"/>
<feComposite in2="hardAlpha" operator="out"/>
<feColorMatrix type="matrix" values="0 0 0 0 0 0 0 0 0 0 0 0 0 0 0 0 0 0 0.25 0"/>
<feBlend mode="normal" in2="BackgroundImageFix" result="effect1_dropShadow_4127_555"/>
<feBlend mode="normal" in="SourceGraphic" in2="effect1_dropShadow_4127_555" result="shape"/>
</filter>
</defs>
</svg>
