<svg width="200" height="34" viewBox="0 0 200 34" fill="none" xmlns="http://www.w3.org/2000/svg">
    <path d="M0.539151 33.2086H196.866C198.593 33.2086 200 31.7816 200 30.0304L200 3.22994C200 1.46572 198.593 0.0517578 196.867 0.0517578H0.539168C0.538941 1.34177 0.539151 23.6192 0.539151 33.2086Z" fill="#EA1649"/>
    <mask id="path-2-outside-1_4127_556" maskUnits="userSpaceOnUse" x="7.99609" y="6.36816" width="184" height="21" fill="black">
    <rect fill="white" x="7.99609" y="6.36816" width="184" height="21"/>
    <path d="M8.99609 7.624H19.8882C21.7035 7.624 23.0175 8.03335 23.8301 8.85203C24.66 9.65366 25.0749 10.9499 25.0749 12.7408V15.2992C25.0749 17.0901 24.66 18.3948 23.8301 19.2135C23.0175 20.0152 21.7035 20.416 19.8882 20.416H13.6641V25.5328H8.99609V7.624ZM20.4069 12.7408C20.4069 11.7174 19.8882 11.2058 18.8509 11.2058H13.6641V16.8342H18.8509C19.8882 16.8342 20.4069 16.3225 20.4069 15.2992V12.7408Z"/>
    <path d="M29.4826 7.624H40.3747C42.1901 7.624 43.504 8.03335 44.3166 8.85203C45.1465 9.65366 45.5614 10.9499 45.5614 12.7408V15.0433C45.5614 16.459 45.3194 17.5591 44.8353 18.3437C44.3685 19.1283 43.6164 19.6485 42.5791 19.9043L45.8208 25.5328H40.7637L37.7813 20.1601H34.1507V25.5328H29.4826V7.624ZM40.8934 12.7408C40.8934 11.7174 40.3747 11.2058 39.3374 11.2058H34.1507V16.5784H39.3374C40.3747 16.5784 40.8934 16.0667 40.8934 15.0433V12.7408Z"/>
    <path d="M61.8925 12.485C61.8925 11.4616 61.3738 10.9499 60.3365 10.9499H55.9278C54.8904 10.9499 54.3717 11.4616 54.3717 12.485V20.6718C54.3717 21.6952 54.8904 22.2069 55.9278 22.2069H60.3365C61.3738 22.2069 61.8925 21.6952 61.8925 20.6718V12.485ZM66.5605 20.6718C66.5605 22.4627 66.1456 23.7675 65.3157 24.5862C64.5031 25.3878 63.1892 25.7886 61.3738 25.7886H54.8904C53.0751 25.7886 51.7525 25.3878 50.9226 24.5862C50.11 23.7675 49.7037 22.4627 49.7037 20.6718V12.485C49.7037 10.6941 50.11 9.39782 50.9226 8.59619C51.7525 7.77751 53.0751 7.36816 54.8904 7.36816H61.3738C63.1892 7.36816 64.5031 7.77751 65.3157 8.59619C66.1456 9.39782 66.5605 10.6941 66.5605 12.485V20.6718Z"/>
    <path d="M86.8009 15.555L83.1702 21.951H79.5395L75.9088 15.555V25.5328H71.2407V7.624H76.1681L81.3548 17.0901L86.5415 7.624H91.4689V25.5328H86.8009V15.555Z"/>
    <path d="M99.9075 25.5328H94.8504L101.723 7.624H106.91L113.782 25.5328H108.725L107.558 22.3348H101.074L99.9075 25.5328ZM102.241 19.0089H106.391L104.316 12.9966L102.241 19.0089Z"/>
    <path d="M117.152 7.624H128.044C129.86 7.624 131.174 8.03335 131.986 8.85203C132.816 9.65366 133.231 10.9499 133.231 12.7408V15.0433C133.231 16.459 132.989 17.5591 132.505 18.3437C132.038 19.1283 131.286 19.6485 130.249 19.9043L133.49 25.5328H128.433L125.451 20.1601H121.82V25.5328H117.152V7.624ZM128.563 12.7408C128.563 11.7174 128.044 11.2058 127.007 11.2058H121.82V16.5784H127.007C128.044 16.5784 128.563 16.0667 128.563 15.0433V12.7408Z"/>
    <path d="M142.56 25.5328H137.892V7.624H142.56V14.6596H144.894L148.94 7.624H153.867L148.784 16.4505L153.841 25.5328H148.914L144.894 18.2413H142.56V25.5328Z"/>
    <path d="M171.885 25.5328H157.492V7.624H171.885V11.2058H162.16V14.6596H169.811V18.2413H162.16V21.951H171.885V25.5328Z"/>
    <path d="M184.846 25.5328H180.178V11.2058H174.732V7.624H190.292V11.2058H184.846V25.5328Z"/>
    </mask>
    <path d="M8.99609 7.624H19.8882C21.7035 7.624 23.0175 8.03335 23.8301 8.85203C24.66 9.65366 25.0749 10.9499 25.0749 12.7408V15.2992C25.0749 17.0901 24.66 18.3948 23.8301 19.2135C23.0175 20.0152 21.7035 20.416 19.8882 20.416H13.6641V25.5328H8.99609V7.624ZM20.4069 12.7408C20.4069 11.7174 19.8882 11.2058 18.8509 11.2058H13.6641V16.8342H18.8509C19.8882 16.8342 20.4069 16.3225 20.4069 15.2992V12.7408Z" fill="#FBFAF9"/>
    <path d="M29.4826 7.624H40.3747C42.1901 7.624 43.504 8.03335 44.3166 8.85203C45.1465 9.65366 45.5614 10.9499 45.5614 12.7408V15.0433C45.5614 16.459 45.3194 17.5591 44.8353 18.3437C44.3685 19.1283 43.6164 19.6485 42.5791 19.9043L45.8208 25.5328H40.7637L37.7813 20.1601H34.1507V25.5328H29.4826V7.624ZM40.8934 12.7408C40.8934 11.7174 40.3747 11.2058 39.3374 11.2058H34.1507V16.5784H39.3374C40.3747 16.5784 40.8934 16.0667 40.8934 15.0433V12.7408Z" fill="#FBFAF9"/>
    <path d="M61.8925 12.485C61.8925 11.4616 61.3738 10.9499 60.3365 10.9499H55.9278C54.8904 10.9499 54.3717 11.4616 54.3717 12.485V20.6718C54.3717 21.6952 54.8904 22.2069 55.9278 22.2069H60.3365C61.3738 22.2069 61.8925 21.6952 61.8925 20.6718V12.485ZM66.5605 20.6718C66.5605 22.4627 66.1456 23.7675 65.3157 24.5862C64.5031 25.3878 63.1892 25.7886 61.3738 25.7886H54.8904C53.0751 25.7886 51.7525 25.3878 50.9226 24.5862C50.11 23.7675 49.7037 22.4627 49.7037 20.6718V12.485C49.7037 10.6941 50.11 9.39782 50.9226 8.59619C51.7525 7.77751 53.0751 7.36816 54.8904 7.36816H61.3738C63.1892 7.36816 64.5031 7.77751 65.3157 8.59619C66.1456 9.39782 66.5605 10.6941 66.5605 12.485V20.6718Z" fill="#FBFAF9"/>
    <path d="M86.8009 15.555L83.1702 21.951H79.5395L75.9088 15.555V25.5328H71.2407V7.624H76.1681L81.3548 17.0901L86.5415 7.624H91.4689V25.5328H86.8009V15.555Z" fill="#FBFAF9"/>
    <path d="M99.9075 25.5328H94.8504L101.723 7.624H106.91L113.782 25.5328H108.725L107.558 22.3348H101.074L99.9075 25.5328ZM102.241 19.0089H106.391L104.316 12.9966L102.241 19.0089Z" fill="#FBFAF9"/>
    <path d="M117.152 7.624H128.044C129.86 7.624 131.174 8.03335 131.986 8.85203C132.816 9.65366 133.231 10.9499 133.231 12.7408V15.0433C133.231 16.459 132.989 17.5591 132.505 18.3437C132.038 19.1283 131.286 19.6485 130.249 19.9043L133.49 25.5328H128.433L125.451 20.1601H121.82V25.5328H117.152V7.624ZM128.563 12.7408C128.563 11.7174 128.044 11.2058 127.007 11.2058H121.82V16.5784H127.007C128.044 16.5784 128.563 16.0667 128.563 15.0433V12.7408Z" fill="#FBFAF9"/>
    <path d="M142.56 25.5328H137.892V7.624H142.56V14.6596H144.894L148.94 7.624H153.867L148.784 16.4505L153.841 25.5328H148.914L144.894 18.2413H142.56V25.5328Z" fill="#FBFAF9"/>
    <path d="M171.885 25.5328H157.492V7.624H171.885V11.2058H162.16V14.6596H169.811V18.2413H162.16V21.951H171.885V25.5328Z" fill="#FBFAF9"/>
    <path d="M184.846 25.5328H180.178V11.2058H174.732V7.624H190.292V11.2058H184.846V25.5328Z" fill="#FBFAF9"/>
    <path d="M8.99609 7.624H19.8882C21.7035 7.624 23.0175 8.03335 23.8301 8.85203C24.66 9.65366 25.0749 10.9499 25.0749 12.7408V15.2992C25.0749 17.0901 24.66 18.3948 23.8301 19.2135C23.0175 20.0152 21.7035 20.416 19.8882 20.416H13.6641V25.5328H8.99609V7.624ZM20.4069 12.7408C20.4069 11.7174 19.8882 11.2058 18.8509 11.2058H13.6641V16.8342H18.8509C19.8882 16.8342 20.4069 16.3225 20.4069 15.2992V12.7408Z" stroke="black" stroke-width="2" mask="url(#path-2-outside-1_4127_556)"/>
    <path d="M29.4826 7.624H40.3747C42.1901 7.624 43.504 8.03335 44.3166 8.85203C45.1465 9.65366 45.5614 10.9499 45.5614 12.7408V15.0433C45.5614 16.459 45.3194 17.5591 44.8353 18.3437C44.3685 19.1283 43.6164 19.6485 42.5791 19.9043L45.8208 25.5328H40.7637L37.7813 20.1601H34.1507V25.5328H29.4826V7.624ZM40.8934 12.7408C40.8934 11.7174 40.3747 11.2058 39.3374 11.2058H34.1507V16.5784H39.3374C40.3747 16.5784 40.8934 16.0667 40.8934 15.0433V12.7408Z" stroke="black" stroke-width="2" mask="url(#path-2-outside-1_4127_556)"/>
    <path d="M61.8925 12.485C61.8925 11.4616 61.3738 10.9499 60.3365 10.9499H55.9278C54.8904 10.9499 54.3717 11.4616 54.3717 12.485V20.6718C54.3717 21.6952 54.8904 22.2069 55.9278 22.2069H60.3365C61.3738 22.2069 61.8925 21.6952 61.8925 20.6718V12.485ZM66.5605 20.6718C66.5605 22.4627 66.1456 23.7675 65.3157 24.5862C64.5031 25.3878 63.1892 25.7886 61.3738 25.7886H54.8904C53.0751 25.7886 51.7525 25.3878 50.9226 24.5862C50.11 23.7675 49.7037 22.4627 49.7037 20.6718V12.485C49.7037 10.6941 50.11 9.39782 50.9226 8.59619C51.7525 7.77751 53.0751 7.36816 54.8904 7.36816H61.3738C63.1892 7.36816 64.5031 7.77751 65.3157 8.59619C66.1456 9.39782 66.5605 10.6941 66.5605 12.485V20.6718Z" stroke="black" stroke-width="2" mask="url(#path-2-outside-1_4127_556)"/>
    <path d="M86.8009 15.555L83.1702 21.951H79.5395L75.9088 15.555V25.5328H71.2407V7.624H76.1681L81.3548 17.0901L86.5415 7.624H91.4689V25.5328H86.8009V15.555Z" stroke="black" stroke-width="2" mask="url(#path-2-outside-1_4127_556)"/>
    <path d="M99.9075 25.5328H94.8504L101.723 7.624H106.91L113.782 25.5328H108.725L107.558 22.3348H101.074L99.9075 25.5328ZM102.241 19.0089H106.391L104.316 12.9966L102.241 19.0089Z" stroke="black" stroke-width="2" mask="url(#path-2-outside-1_4127_556)"/>
    <path d="M117.152 7.624H128.044C129.86 7.624 131.174 8.03335 131.986 8.85203C132.816 9.65366 133.231 10.9499 133.231 12.7408V15.0433C133.231 16.459 132.989 17.5591 132.505 18.3437C132.038 19.1283 131.286 19.6485 130.249 19.9043L133.49 25.5328H128.433L125.451 20.1601H121.82V25.5328H117.152V7.624ZM128.563 12.7408C128.563 11.7174 128.044 11.2058 127.007 11.2058H121.82V16.5784H127.007C128.044 16.5784 128.563 16.0667 128.563 15.0433V12.7408Z" stroke="black" stroke-width="2" mask="url(#path-2-outside-1_4127_556)"/>
    <path d="M142.56 25.5328H137.892V7.624H142.56V14.6596H144.894L148.94 7.624H153.867L148.784 16.4505L153.841 25.5328H148.914L144.894 18.2413H142.56V25.5328Z" stroke="black" stroke-width="2" mask="url(#path-2-outside-1_4127_556)"/>
    <path d="M171.885 25.5328H157.492V7.624H171.885V11.2058H162.16V14.6596H169.811V18.2413H162.16V21.951H171.885V25.5328Z" stroke="black" stroke-width="2" mask="url(#path-2-outside-1_4127_556)"/>
    <path d="M184.846 25.5328H180.178V11.2058H174.732V7.624H190.292V11.2058H184.846V25.5328Z" stroke="black" stroke-width="2" mask="url(#path-2-outside-1_4127_556)"/>
</svg>
