<svg id="up" width="60" height="58" viewBox="0 0 60 58" fill="none" xmlns="http://www.w3.org/2000/svg">
<path fill-rule="evenodd" clip-rule="evenodd" d="M9 51.2C8.25 51.2 7.5 50.5571 7.5 49.6999C7.5 48.9499 8.14286 48.2 9 48.2C9.75 48.2 10.5 48.8428 10.5 49.6999C10.5 50.5571 9.85714 51.2 9 51.2Z" stroke="#3BB9B8" stroke-width="2" stroke-miterlimit="10"/>
<path fill-rule="evenodd" clip-rule="evenodd" d="M53.5002 52.4C53.5002 50.8 52.7002 49.4 51.4002 48.6L51.5002 48.3C53.7002 47.9 55.3002 45.9 55.3002 43.7" stroke="#3BB9B8" stroke-width="2" stroke-miterlimit="10"/>
<path d="M16.5998 25.9H4.79981C3.14295 25.9 1.7998 27.2432 1.7998 28.9V54C1.7998 55.6569 3.14295 57 4.7998 57H21.1998" stroke="#3BB9B8" stroke-width="2" stroke-miterlimit="10"/>
</svg>
